<?xml version="1.0" encoding="utf-8"?>
<!-- Generator: Adobe Illustrator 21.0.0, SVG Export Plug-In . SVG Version: 6.00 Build 0)  -->
<svg version="1.1" id="Layer_1" xmlns="http://www.w3.org/2000/svg" xmlns:xlink="http://www.w3.org/1999/xlink" x="0px" y="0px"
	 width="797.3px" height="787.3px" viewBox="0 0 797.3 787.3" style="enable-background:new 0 0 797.3 787.3;" xml:space="preserve"
	>
<style type="text/css">
	.st0{fill:#D1D3D4;}
	.st1{fill:#00AEEF;}
	.st2{fill:#FBFBFB;}
	.st3{fill:#ED1C24;}
</style>
<g>
	<path class="st0" d="M258.2,716.2c2.8,3.3,4.8,7.3,5.5,11.8c0.4,2.4,0.3,1,0.3,3.5s0.1,1.1-0.3,3.5c-1.6,9.8-9.2,16.9-17.7,21.2
		c-9.4,4.8-20.5,6.8-31,6.8c-11.9,0-26.2-2.8-36.5-10.1c-9.7,5.3-21.6,7.4-32.1,7.4s-21.6-2-31-6.8c-8.5-4.3-16.1-11.4-17.7-21.2
		c-0.4-2.4-0.3-1-0.3-3.5s-0.1-1.1,0.3-3.5c1.3-8.4,7.2-14.8,14.2-19.2l-55.1-3.8l-0.3-8.8c-1.7-58.1-68.2-133.7-33.3-188l3-4.7
		l91,3.4l-4.2,12.3c-6,17.9-9.6,36.4-7.7,55.3c1.4,14.6,5.9,27.6,11,41.2c4.8,13,9.4,25.3,12,38.7l62.8,6.7
		c-0.6-4.1-1.6-8.2-3.1-12.2c-5.3-14.6-15.7-28.1-24.5-40.9c-17.3-24.9-29.8-48.7-23.8-80.3l1.4-7.3l7.4-0.6
		c92-7.2,148.9,31.1,180.3,102.3c-2.5-9.4-4.8-18.9-6.7-28.3c-4.1-20.4-6.2-41.7-0.3-62l2.1-7.3l7.6,0.3c12.6,0.5,27,1.5,42,3.2
		c-4.5-4-7.8-9.1-8.8-15.2c-0.4-2.4-0.3-1-0.3-3.5s-0.1-1.1,0.3-3.5c0.7-4.7,2.9-8.7,5.8-12.1c-55.8,1.2-114.8,2.4-170.1-4.2
		c-38-4.6-93.6-15-112.5-53.1c-3.9-7.9-6-16.3-6.3-25.1l-0.5-13.1l-7.7-2.2l-4.8-126.2c41.3,12.2,76.7,21.5,120.5,24.6
		c3-12.2,7-24,11.9-35.3c-41.2-2.4-78.5-10.6-118.3-19.7c39.2-77.2,79.8-137.5,157.3-182c54.6-31.2,116.3-45.4,179-42.3
		c112.3,5.6,228.9,69,275.4,174.9c13.2,30.2,20,62.5,19.6,95.4l-1.2,108.4c-21.7,58.5-66.5,71.3-124.8,82.8
		c-43.1,8.5-89,12.5-134.2,14.6c4.1,3.9,7.2,8.7,8.1,14.6c0.4,2.4,0.3,1,0.3,3.5s0.1,1.1-0.3,3.5c-1.6,9.8-9.2,16.9-17.7,21.2
		c-4.4,2.2-9.1,3.9-14,5c28.7,8.3,54.9,21.3,70.8,41.9l11.9,15.3l-28,0.5c4.8,13.4,8.8,26.7,11.9,40.2h1.4
		c26.2-0.4,47.9,7.6,66.6,21.6c-6.2-14.8-12.6-29.4-17.6-44.7c-6.8-20.7-11.4-43.2-7.6-65l1.6-9.3l9.3,1.3
		c27.8,3.9,61.5,10.6,91,23.8l89.4-16.7l3,1.7c33.6,18.3,63.6,48.2,63.4,88.9c-0.1,25.3-12.3,48.2-29.6,66.1
		c-21.2,21.9-49.8,36.7-78.6,45.5l-1.8,0.6l-90.8-8.4c-3.6,16.9-11.7,31.8-24.2,44.5l-3.1,3.2l-86.5-6l12.6-14.7
		c28.5-33.3,25.9-65.7,7.3-98.5c1.9,18.2,1.8,36.8-0.6,56l-1.2,9.1l-236-17.6l-0.2-8.8c-0.1-2.4-0.1-4.8-0.2-7.2
		c-0.5,2.8-1.1,5.6-1.8,8.5l-1.9,8L258.2,716.2L258.2,716.2z M16.1,703.1V682h9.4c1.9,0,3.3,0.2,4.3,0.6c1,0.4,1.8,1,2.4,2
		c0.6,1,0.9,2,0.9,3.2c0,1.5-0.5,2.8-1.5,3.8s-2.5,1.7-4.5,2c0.7,0.4,1.3,0.7,1.7,1.1c0.8,0.7,1.6,1.7,2.3,2.8l3.7,5.8h-3.5
		l-2.8-4.4c-0.8-1.3-1.5-2.2-2-2.9s-1-1.1-1.4-1.4c-0.4-0.3-0.8-0.5-1.3-0.6c-0.3-0.1-0.8-0.1-1.6-0.1h-3.3v9.4h-2.8V703.1z
		 M25.4,674.7c4.6,0,8.8,2,11.8,5.3c3,3.2,4.9,7.7,4.9,12.6c0,4.9-1.9,9.4-4.9,12.6c-3,3.2-7.2,5.3-11.8,5.3s-8.8-2-11.8-5.3
		c-3-3.2-4.9-7.7-4.9-12.6c0-4.9,1.9-9.4,4.9-12.6C16.6,676.7,20.8,674.7,25.4,674.7L25.4,674.7z M35.4,681.6
		c-2.6-2.8-6.1-4.5-10-4.5c-3.9,0-7.5,1.7-10,4.5c-2.6,2.8-4.2,6.6-4.2,10.9c0,4.3,1.6,8.1,4.2,10.9c2.6,2.8,6.1,4.5,10,4.5
		c3.9,0,7.5-1.7,10-4.5c2.6-2.8,4.2-6.6,4.2-10.9C39.6,688.3,38,684.4,35.4,681.6L35.4,681.6z M18.9,691.3h6c1.3,0,2.3-0.1,3-0.4
		c0.7-0.3,1.3-0.7,1.6-1.3c0.4-0.6,0.6-1.2,0.6-1.9c0-1-0.4-1.8-1.1-2.5c-0.7-0.6-1.9-1-3.4-1h-6.7V691.3L18.9,691.3z"/>
	<path class="st1" d="M249.6,704.1c2.8,3.3,4.8,7.3,5.5,11.8c0.4,2.4,0.3,1,0.3,3.5s0.1,1.1-0.3,3.5c-1.6,9.8-9.2,16.9-17.7,21.2
		c-9.4,4.8-20.5,6.8-31,6.8c-11.9,0-26.2-2.8-36.5-10.1c-9.7,5.3-21.6,7.4-32.1,7.4s-21.6-2-31-6.8c-8.5-4.3-16.1-11.4-17.7-21.2
		c-0.4-2.4-0.3-1-0.3-3.5s-0.1-1.1,0.3-3.5c1.3-8.4,7.2-14.8,14.2-19.2l-55.1-3.8l-0.3-8.8c-1.7-58.1-68.2-133.7-33.3-188l3-4.7
		l91,3.4l-4.2,12.3c-6,17.9-9.6,36.4-7.7,55.3c1.4,14.6,5.9,27.6,11,41.2c4.8,13,9.4,25.3,12,38.7l62.8,6.7
		c-0.6-4.1-1.6-8.2-3.1-12.2c-5.3-14.6-15.7-28.1-24.5-40.9c-17.3-24.9-29.8-48.7-23.8-80.3l1.4-7.3l7.4-0.6
		c92-7.2,148.9,31.1,180.3,102.3c-2.5-9.4-4.8-18.9-6.7-28.3c-4.1-20.4-6.2-41.7-0.3-62l2.1-7.3l7.6,0.3c12.6,0.5,27,1.5,42,3.2
		c-4.5-4-7.8-9.1-8.8-15.2c-0.4-2.4-0.3-1-0.3-3.5s-0.1-1.1,0.3-3.5c1.6-9.8,9.2-16.9,17.7-21.2c9.4-4.8,20.5-6.8,31-6.8
		c10.5,0,21.6,2,31,6.8c8.5,4.3,16.1,11.4,17.7,21.2c0.4,2.4,0.3,1,0.3,3.5s0.1,1.1-0.3,3.5c-1.6,9.8-9.2,16.9-17.7,21.2
		c-4.4,2.2-9.1,3.9-14,5c28.7,8.3,54.9,21.3,70.8,41.9l11.9,15.3l-28,0.5c4.8,13.4,8.8,26.7,11.9,40.2h1.4
		c26.2-0.4,47.9,7.6,66.6,21.6c-6.2-14.8-12.6-29.4-17.6-44.7c-6.8-20.7-11.4-43.2-7.6-65l1.6-9.3l9.3,1.3
		c27.8,3.9,61.5,10.6,91,23.8l89.4-16.7l3,1.7c33.6,18.3,63.6,48.2,63.4,88.9c-0.1,25.3-12.3,48.2-29.6,66.1
		c-21.2,21.9-49.8,36.7-78.6,45.5l-1.8,0.6l-90.8-8.4c-3.6,16.9-11.7,31.8-24.2,44.5l-3.1,3.2l-86.5-6l12.6-14.7
		c28.5-33.3,25.9-65.7,7.3-98.5c1.9,18.2,1.8,36.8-0.6,56l-1.2,9.1l-236-17.6l-0.2-8.8c-0.1-2.4-0.1-4.8-0.2-7.2
		c-0.5,2.8-1.1,5.6-1.8,8.5l-1.9,8L249.6,704.1L249.6,704.1z M337.4,659.4l77,4.6l-4.2-25c-20.5,14.6-43.7,21.2-70,19l-3.3-0.3
		C337.2,658.3,337.3,658.8,337.4,659.4L337.4,659.4z M694.2,627.6c5.2,6.9,9.8,14.2,13.7,21.9c0.5-5.6,0.4-11.2-0.5-16.9
		c-2.1-13.5-7.9-25.5-16.1-36c3.3,5.3,6.1,11,8.2,17l5.8,16.2L694.2,627.6L694.2,627.6z M381.4,573.6c-0.1,7.2,1.3,13.1,3.5,21.3
		c0.5,1.8,0.9,3.7,1.3,5.5c1.6-0.2,3.1-0.5,4.7-0.9c3.4-0.8,6.7-1.8,10-2.7c0.3-0.1,0.6-0.1,0.9-0.2l-2.9-20.9
		C393.1,574.5,387.2,573.8,381.4,573.6L381.4,573.6z M603.7,600.4c5.5,16.3,13.1,32.3,20.3,47.5c4.1,8.8,8.3,17.6,12.1,26.6
		l16.1,1.3c-1.8-9.2-5.3-18.4-8.6-26.7c-5.2-12.9-11.7-26.7-15.4-40.4C620.5,605.8,612.1,602.4,603.7,600.4L603.7,600.4z"/>
	<g>
		<path class="st2" d="M206.4,697.6c-13.9,0-26,4-33,10c-6.1-7.5-19.8-12.7-35.6-12.7c-21.6,0-39.2,9.7-39.2,21.8
			c0,12,17.5,21.8,39.2,21.8c13.9,0,26-4,33-10c6.1,7.5,19.8,12.7,35.6,12.7c21.6,0,39.2-9.8,39.2-21.8
			C245.6,707.3,228.1,697.6,206.4,697.6z"/>
		<path class="st2" d="M404.9,516.6c21.6,0,39.2-9.8,39.2-21.8S426.6,473,404.9,473s-39.2,9.7-39.2,21.8S383.2,516.6,404.9,516.6z"
			/>
		<path class="st2" d="M485.1,572.3c-25.4-32.7-84.4-49-162.4-52.3c-10.2,34.9,5.3,75.1,18.5,128.3c26.6,2.2,52.2-5,76-27.5
			l8.9,53.6l-96.5-5.8C302,545.1,232.2,507.8,140.7,514.9c-11.5,60.5,54.9,88.4,52.1,142.4l-81.4-8.7
			c-6.6-48.8-40.6-74.5-16.1-147.3l-72.4-2.7c-31.4,48.8,33,121.6,35,182.4l187,13c18.8-79.4-36.5-101-54.7-151.5
			c21.1,14.4,72.9,34.9,75.9,152.2l218,16.3c6.5-50.3-4.5-95.2-21.3-138.3L485.1,572.3z M378,611c-1.1-15.7-8.9-24.6-5.5-47.1
			c11.9-0.5,24.1,0.9,35.1,3.8l5.2,37C401.2,605.2,396.6,610,378,611z"/>
		<path class="st2" d="M720.9,543.6L656,555.7c52.9,27.9,76,77.2,52.9,124.9c-6.7-27.5-21.8-49.4-41.6-68.2l22.9,4.6
			c-16.7-46.8-74.7-70.6-149.5-81.1c-8.9,51.7,34.4,111.6,37.4,143.2c-26.1-32.9-54.2-47.5-88.1-47c31.4,43.1,41.2,86.1,4.3,129.1
			l62.7,4.3c13.6-13.8,21-30,23-48.2l97.9,9C786.5,692.8,818.5,596.6,720.9,543.6z M629.5,683.7c-13.1-31.5-31.6-63.7-39.2-94.7
			c15.4-0.2,30.9,6.7,46.3,12.5c5.1,25,26,56.6,26.7,84.9L629.5,683.7z"/>
	</g>
	<path class="st1" d="M7.4,691v-21.1h9.4c1.9,0,3.3,0.2,4.3,0.6c1,0.4,1.8,1,2.4,2s0.9,2,0.9,3.2c0,1.5-0.5,2.8-1.5,3.8
		s-2.5,1.7-4.5,2c0.7,0.4,1.3,0.7,1.7,1.1c0.8,0.7,1.6,1.7,2.3,2.8l3.7,5.8h-3.5l-2.8-4.4c-0.8-1.3-1.5-2.2-2-2.9s-1-1.1-1.4-1.4
		c-0.4-0.3-0.8-0.5-1.3-0.6c-0.3-0.1-0.8-0.1-1.6-0.1h-3.2v9.4H7.4V691z M16.7,662.6c4.6,0,8.8,2,11.8,5.3c3,3.2,4.9,7.7,4.9,12.6
		c0,4.9-1.9,9.4-4.9,12.6c-3,3.2-7.2,5.3-11.8,5.3c-4.6,0-8.8-2-11.8-5.3c-3-3.2-4.9-7.7-4.9-12.6c0-4.9,1.9-9.4,4.9-12.6
		C7.9,664.6,12.1,662.6,16.7,662.6L16.7,662.6z M26.8,669.5c-2.6-2.8-6.1-4.5-10-4.5s-7.5,1.7-10,4.5c-2.6,2.8-4.2,6.6-4.2,10.9
		c0,4.3,1.6,8.1,4.2,10.9c2.6,2.8,6.1,4.5,10,4.5s7.5-1.7,10-4.5c2.6-2.8,4.2-6.6,4.2-10.9C31,676.2,29.3,672.3,26.8,669.5
		L26.8,669.5z M10.2,679.2h6c1.3,0,2.3-0.1,3-0.4c0.7-0.3,1.3-0.7,1.6-1.3c0.4-0.6,0.6-1.2,0.6-1.9c0-1-0.4-1.8-1.1-2.5
		c-0.7-0.6-1.9-1-3.4-1h-6.7V679.2L10.2,679.2z"/>
	<path class="st1" d="M72.7,383.6l-7.7-2.2l-4.8-126.2l26,7.6c31,9.1,62.4,14.7,94.5,16.9c3-12.2,7-24,11.9-35.3
		c-31.7-1.9-63.1-7-94-14.1l-24.2-5.6l11.3-22.2c33.5-65.9,81.5-122.8,146.1-159.8c54.6-31.2,116.3-45.4,179-42.3
		c112.3,5.6,228.9,69,275.4,174.9c13.2,30.2,20,62.5,19.6,95.4l-1.2,108.4l2.3,0.9l-2.4,4.7l-0.1,5.4l-2.4-0.6l-4.9,9.6
		c-20,39.3-77.6,54.9-117.3,62.8c-61.2,12.1-128,15-190.3,16.4c-8,0.2-16,0.4-23.9,0.5c-56.8,1.2-117,2.6-173.4-4.1
		c-38-4.6-93.6-15-112.5-53.1c-3.9-7.9-6-16.3-6.3-25.1L72.7,383.6L72.7,383.6z M323.7,272c35.5-4.9,70.8-11,106.2-16.1
		C396.5,233.5,350.6,241.6,323.7,272L323.7,272z"/>
	<path class="st2" d="M688.3,394.9c-18.3,35.9-74.4,50.5-110.6,57.7c-29.1,5.7-58.9,9.1-88.4,11.5c-33.3,2.7-66.8,4-100.2,4.8
		c-8,0.2-15.9,0.4-23.9,0.5c-30.1,0.6-60.2,1.1-90.3,0.7c-27.2-0.4-54.7-1.5-81.8-4.7c-34-4.1-87.9-13.5-104.9-47.8
		c-3.3-6.6-5-13.8-5.3-21.2l-0.5-11.9l11.7,1.9c55.2,8.8,110.4,11,166.2,8.3c49.3-2.4,97.9-8.6,146.8-15.5
		c43.2-6.1,86.9-12.9,130.5-15.6c39.4-2.4,79.2-1.4,117.6,8.7c9.5,2.5,18.9,5.6,28,9.2l10,3.9L688.3,394.9L688.3,394.9z
		 M576.1,253.6c0.7,0,1.4,0,2.2,0c-25.7-63.8-80.4-111-148.4-125.9c-40.3-8.8-82.4-5.2-120.4,10.8c-43.9,18.5-78.2,51.5-102.8,91.9
		l-3,4.9l-5.8-0.3c-32.7-1.6-65.2-6.8-97.1-14.2L88.7,218l5.6-11.1c32.6-64.2,79.3-119.7,142.2-155.7c52.9-30.3,112.8-44.1,173.7-41
		c56.7,2.8,112.9,20.2,161,50.4c45.6,28.6,84.2,69.1,106,118.7c12.7,28.9,19.1,59.9,18.8,91.4l-1.2,107.1l-12-3
		c-77.2-19.5-153.4-16.6-231.7-7.3c-76.1,9.1-151.9,23.7-228.7,25c-47.8,0.8-94.8-3.7-141-16.7l-6.8-1.9l-4.1-105.5l13,3.8
		c34.4,10.1,69.2,16,104.9,17.8c19.2-94.4,102-164.4,199.4-164.4C471.1,125.7,545.7,176.7,576.1,253.6L576.1,253.6z M303.4,284.5
		c24-3,48-6.8,71.9-10.5c25.6-4,51.2-8,77-11.4C409.9,214.6,332.6,228.5,303.4,284.5L303.4,284.5z"/>
	<path class="st3" d="M679.6,390.5c-26.4,51.7-153.4,65.6-290.7,68.6c-142.3,3.2-293.5,6.6-296.2-63.2
		C346.9,436.3,531.4,331.8,679.6,390.5L679.6,390.5z M80.6,281.6c40.4,11.9,78.6,17.3,115.7,18.6c15.2-94.8,96.6-164.7,191.4-164.7
		c83.8,0,155,53.4,181.6,128c7.5-0.1,15.1-0.1,22.9,0C536.4,94.8,305.3,49.6,198.3,225.4c-31.8-1.5-63.6-6.6-95.4-13.9
		c167.1-329,554.8-185.4,583.2,59.2l-1.1,94.7c-210.1-53-401.8,57.4-601.1,1.1L80.6,281.6L80.6,281.6z M288,296.1
		c58.7-6.4,117.5-18.3,182-25.9C423.8,196,314.7,214.9,288,296.1L288,296.1z"/>
</g>
</svg>
